<?xml version="1.0" encoding="UTF-8" standalone="no"?>
<svg width="18px" height="18px" viewBox="0 0 46 46" version="1.1" xmlns="http://www.w3.org/2000/svg" xmlns:xlink="http://www.w3.org/1999/xlink">
    <title>Google Logo</title>
    <g id="Google-Button" stroke="none" stroke-width="1" fill="none" fill-rule="evenodd">
        <g id="btn_google_light_normal" transform="translate(-11.000000, -11.000000)">
            <g id="logo_googleg_48dp" transform="translate(11.000000, 11.000000)">
                <path d="M45.12,18.6075 C45.12,17.355 45.0175,16.1025 44.8125,14.91 L23,14.91 L23,22.0575 L35.4875,22.0575 C34.965,24.3025 33.3475,26.1975 30.9875,27.4925 L30.9875,32.135 L38.565,32.135 C42.9125,28.9625 45.12,24.2125 45.12,18.6075 L45.12,18.6075 Z" id="Shape" fill="#4285F4"></path>
                <path d="M23,46 C29.1875,46 34.3525,43.9375 38.565,32.135 L30.9875,27.4925 C28.9,28.8325 26.2075,29.6125 23,29.6125 C16.9425,29.6125 11.8075,26.3875 10.0225,21.91 L2.1875,21.91 L2.1875,26.6875 C6.3275,38.175 14.1175,46 23,46 L23,46 Z" id="Shape" fill="#34A853"></path>
                <path d="M10.0225,21.91 C9.5525,20.775 9.2875,19.5375 9.2875,18.25 C9.2875,16.9625 9.5525,15.725 10.0225,14.59 L10.0225,9.8125 L2.1875,9.8125 C0.7975,12.4 0,15.2375 0,18.25 C0,21.2625 0.7975,24.1 2.1875,26.6875 L10.0225,21.91 L10.0225,21.91 Z" id="Shape" fill="#FBBC05"></path>
                <path d="M23,6.8875 C26.3625,6.8875 29.335,8.0125 31.6325,10.1975 L38.335,3.495 C34.34,1.33 29.0175,0 23,0 C14.1175,0 6.3275,7.825 2.1875,19.3125 L10.0225,24.09 C11.8075,19.6125 16.9425,6.8875 23,6.8875 L23,6.8875 Z" id="Shape" fill="#EA4335"></path>
            </g>
        </g>
    </g>
</svg>