<svg xmlns="http://www.w3.org/2000/svg" viewBox="0 0 2406 2406" width="24" height="24">
  <path fill="#000000" d="M1107.3,299.1c-235,85.3-300.2,375.1-198.1,575.3c8.8,17.3,2.3,35.2-12.5,45.5L673.8,1101c-16.8,11.4-35.1-3.1-35.1-23.2V796.9c0-451.8,478.1-773.4,890.1-581.5c284.2,132.2,382.5,444.4,291.3,698.9l-2.9,8c-4.1,11.9-9.5,24.8-17.3,38.9c-14.4,25.8-44.3,36.4-69.9,20.5c-25.6-15.9-35-47.2-21.4-72.5c1.4-2.6,2.7-5.2,3.9-7.9c67.2-188.2-5.2-410.9-213.7-506.1c-222.3-101.7-494.8,32.5-494.8,316.1v122.7c0,18.9,24.1,28,37.4,14.9l154.9-152.4c32.8-32.3,79.8-41.3,119.9-23c184.8,84.1,249.2,329.3,144,502.3c-32.2,53.1-79.3,94.4-134.1,119.1L1196.9,1307c-49.8,22.6-68.1,81.3-47,129.1c14.1,31.9,46.5,47.7,80,47.7c12.3,0,24.8-2.6,36.6-8L1351,1443c15.6-7.1,33.9,2.6,35.5,19.7c4.4,46.6,2.6,95.8-6.6,148.4c-27.4,158.3-121.7,289.8-253.4,365c-260.9,148.5-599.9,37.3-692.4-267.4c-7-23-12.1-46.5-15.4-70.2c-1.6-11.6,5.7-25.9,18.5-30.4L694,1531c18.3-6.4,36.1,9.2,33.7,28.6c-1.2,9.3-1.7,18.7-1.7,28.1c0,196.6,202,355.7,439.2,290.7c81.7-22.4,150.8-75.3,192.2-145.5c4.5-7.6,9.1-15.1,13.8-22.5c9.5-15.1,8.4-35.8-5.5-45.6c-18.7-13.3-40.6-3.7-50.1,10.7l-9.2,14c-27.4,41.7-76.3,61.5-124.8,45.9l-105.1-33.9c-17.9-5.7-29.4-25-25-43.4c5.3-22.1,23.4-35.2,46.7-35.2c4.1,0,8.4,0.5,12.5,1.7l69.3,19.3c60,16.7,122,2.1,171.2-37.3c65.2-52.3,97.4-140.7,83.7-224c-18.5-113.2-130.6-196.9-265.6-196.9c-73.9,0-149.4,30.7-204.2,76.4c-7.9,6.5-17.8,9.5-27.5,8.4l-102.9-12.6c-14-1.7-24.5-14.2-23.9-28.5c0.7-14.3,11.9-26,26.2-26h0.1l67.6,5.4c63.4-43.8,140.6-70.2,224.6-70.2c86.5,0,166.8,28.5,232.9,75.1l1.6,1.1c14.9,10.5,33.8,8.5,45.8-5c14.4-16.1,9.3-38.5-13.6-51.3l0,0c-151.7-85-341.3-82-477.6,2.7c-142.5,88.7-229.8,237.6-229.8,399c0,165.5,90.5,315.9,236.2,406.9c16.1,10.1,33.5,19.2,51.8,27.2c12.1,5.3,27.5,2,35.8-8.4c11.7-14.5,5.5-34.3-12.1-42l-3.3-1.5c-148.9-66.2-253.3-208.8-253.3-373.5c0-137.1,71.5-265.2,191.6-344.9c2.4-1.6,4.8-3.1,7.3-4.6c17.6-10.8,38.7-2.7,45.9,15.7c8.8,22.2-6.5,46.9-32,51.8c-84.1,16.1-155.7,66.2-198.2,139.5c-6.7,11.6-7,26.3,0.1,37.6c9.5,15.2,26.5,17.3,42.6,10.1l9.4-4.2c37.3-16.8,79.4-23.1,120.5-17.9c17.6,2.2,31.8-11.9,31.7-29.4c-0.1-17.5-15-32.1-32.7-30.2l-0.8,0.1c-21.4,2.3-43.1,7.2-64.1,14.8c29.9-38.4,74-64.8,123.6-74.4c26.1-5,46.1-29.7,46.1-57.2c0-33.9-30.3-60.4-63.8-52.2C985.6,586.9,927.3,684.5,970,796.5c55.5,145.7,259.3,154.6,318.4,12.4c33.1-79.4-11.8-180.3-108.3-209.2c-10.2-3-18.2-9.3-23.7-17.8c-5.8-8.8-8.4-18.8-7.6-29.1c3.6-44.6,47.3-68.7,88.4-60.5c99.3,19.4,171.7,118.7,144.9,219.6c-6.2,23.2,11.9,46.5,38.6,46.5h0.3c18.9-0.2,35.5-13.5,39.3-32.6c21.7-110.1-53.8-222.1-158.8-263l-0.3-0.1c-38.3-14.6-57.2-60.5-38.1-98.9c19.5-39.1,69.4-48.7,102.2-29.2c145.2,85.9,194.3,288.9,72.2,425.3c-1.2,1.3-2.3,2.7-3.3,4.1c-13.1,17.8-6.1,41.5,12.5,46.5c17.3,4.6,40.5-5.3,47.1-24.7c0.7-2.1,1.5-4.1,2.3-6.1C1413.3,700.8,1304.5,476.8,1107.3,299.1z"/>
  <path fill="#000000" d="M1203.4,2058.3c-185.8,0-355.8-68.8-485.5-179.8l-0.3-0.3c-14.9-12.6-17.6-35.2-5.2-50.9c14.3-18.1,37.9-17.8,56.4-5l0.5,0.4c114.1,96,262.1,154.1,419.4,154.1c360.5,0,653.2-286.2,653.2-646.7v-378c0-15.9-17.5-25.4-31.4-18.1l-238.1,124.9c-15.7,8.2-34.9,1.9-43.7-14.2c-8.8-16.1-3.2-36.1,11.9-46l309.3-200.8c13.3-8.7,30.7-8.7,44.1,0l322.9,209.9c15.1,9.9,20.8,29.9,11.9,46c-8.8,16.1-28,22.4-43.7,14.2l-254.6-133.6c-14-7.3-31.4,2.2-31.4,18.1v378.3C1899.2,1748.9,1584.9,2058.3,1203.4,2058.3z"/>
</svg>