<?xml version="1.0" encoding="UTF-8"?>
<svg width="48px" height="48px" viewBox="0 0 48 48" version="1.1" xmlns="http://www.w3.org/2000/svg" xmlns:xlink="http://www.w3.org/1999/xlink">
    <title>Upload Icon</title>
    <g id="Upload-Icon" stroke="none" stroke-width="1" fill="none" fill-rule="evenodd">
        <path d="M24,4 C12.954,4 4,12.954 4,24 C4,35.046 12.954,44 24,44 C35.046,44 44,35.046 44,24 C44,12.954 35.046,4 24,4 Z M24,6 C33.941,6 42,14.059 42,24 C42,33.941 33.941,42 24,42 C14.059,42 6,33.941 6,24 C6,14.059 14.059,6 24,6 Z" id="Oval" fill="#a86a3e" fill-rule="nonzero"></path>
        <path d="M24,14 C23.448,14 23,14.448 23,15 L23,28.586 L17.707,23.293 C17.317,22.902 16.683,22.902 16.293,23.293 C15.902,23.683 15.902,24.317 16.293,24.707 L23.293,31.707 C23.683,32.098 24.317,32.098 24.707,31.707 L31.707,24.707 C32.098,24.317 32.098,23.683 31.707,23.293 C31.317,22.902 30.683,22.902 30.293,23.293 L25,28.586 L25,15 C25,14.448 24.552,14 24,14 Z" id="Path" fill="#a86a3e" fill-rule="nonzero"></path>
        <path d="M15,32 C14.448,32 14,32.448 14,33 L14,34 C14,34.552 14.448,35 15,35 L33,35 C33.552,35 34,34.552 34,34 L34,33 C34,32.448 33.552,32 33,32 L15,32 Z" id="Rectangle" fill="#a86a3e" fill-rule="nonzero"></path>
    </g>
</svg>